<svg width="72" height="83" viewBox="0 0 72 83" fill="none" xmlns="http://www.w3.org/2000/svg">
<path d="M13.1761 82.8H0V73.3848H13.1761C15.6256 73.3255 17.981 72.5585 19.8638 71.2072C21.7466 69.8558 23.0475 67.9984 23.5577 65.9333L36.9211 17.6737C38.2032 12.7012 41.4 8.24856 45.9917 5.0398C50.5833 1.83104 56.2998 0.0548398 62.2116 0H72V9.41521H62.2116C58.7773 9.48038 55.4692 10.5425 52.8228 12.4294C50.1765 14.3164 48.347 16.9178 47.6305 19.8123L34.2515 68.0719C33.1788 72.2138 30.5136 75.922 26.6882 78.5954C22.8627 81.2687 18.1013 82.7503 13.1761 82.8Z" fill="white"/>
<rect x="61.2002" y="21.6006" width="10.8" height="61.2" fill="white"/>
<rect width="10.8" height="61.2" fill="white"/>
</svg>
