<svg width="95" height="92" viewBox="0 0 95 92" fill="none" xmlns="http://www.w3.org/2000/svg">
<path d="M4 1H58C59.6569 1 61 2.34315 61 4V91H1V4C1 2.34315 2.34315 1 4 1Z" stroke="white" stroke-width="2"/>
<path d="M62 32H93C93.5523 32 94 32.4477 94 33V91H61V33C61 32.4477 61.4477 32 62 32Z" stroke="white" stroke-width="2"/>
<line x1="20" y1="67" x2="41" y2="67" stroke="white" stroke-width="2" stroke-linecap="round"/>
<line x1="72" y1="80" x2="81" y2="80" stroke="white" stroke-width="2" stroke-linecap="round"/>
<line x1="23" y1="68" x2="23" y2="90" stroke="white" stroke-width="2" stroke-linecap="round"/>
<line x1="39" y1="68" x2="39" y2="90" stroke="white" stroke-width="2" stroke-linecap="round"/>
<line x1="72" y1="80" x2="72" y2="90" stroke="white" stroke-width="2" stroke-linecap="round"/>
<line x1="82" y1="80" x2="82" y2="90" stroke="white" stroke-width="2" stroke-linecap="round"/>
<line x1="12" y1="13" x2="26" y2="13" stroke="white" stroke-width="2" stroke-linecap="round"/>
<line x1="36" y1="13" x2="50" y2="13" stroke="white" stroke-width="2" stroke-linecap="round"/>
<line x1="69" y1="41" x2="74.2" y2="41" stroke="white" stroke-width="2" stroke-linecap="round"/>
<line x1="79.7998" y1="41" x2="84.9998" y2="41" stroke="white" stroke-width="2" stroke-linecap="round"/>
<line x1="69" y1="48" x2="74.2" y2="48" stroke="white" stroke-width="2" stroke-linecap="round"/>
<line x1="79.7998" y1="48" x2="84.9998" y2="48" stroke="white" stroke-width="2" stroke-linecap="round"/>
<line x1="69" y1="55" x2="74.2" y2="55" stroke="white" stroke-width="2" stroke-linecap="round"/>
<line x1="79.7998" y1="55" x2="84.9998" y2="55" stroke="white" stroke-width="2" stroke-linecap="round"/>
<line x1="69" y1="62" x2="74.2" y2="62" stroke="white" stroke-width="2" stroke-linecap="round"/>
<line x1="79.7998" y1="62" x2="84.9998" y2="62" stroke="white" stroke-width="2" stroke-linecap="round"/>
<line x1="69" y1="69" x2="74.2" y2="69" stroke="white" stroke-width="2" stroke-linecap="round"/>
<line x1="79.7998" y1="69" x2="84.9998" y2="69" stroke="white" stroke-width="2" stroke-linecap="round"/>
<line x1="12" y1="21" x2="26" y2="21" stroke="white" stroke-width="2" stroke-linecap="round"/>
<line x1="36" y1="21" x2="50" y2="21" stroke="white" stroke-width="2" stroke-linecap="round"/>
<line x1="12" y1="29" x2="26" y2="29" stroke="white" stroke-width="2" stroke-linecap="round"/>
<line x1="36" y1="29" x2="50" y2="29" stroke="white" stroke-width="2" stroke-linecap="round"/>
<line x1="12" y1="37" x2="26" y2="37" stroke="white" stroke-width="2" stroke-linecap="round"/>
<line x1="36" y1="37" x2="50" y2="37" stroke="white" stroke-width="2" stroke-linecap="round"/>
<line x1="12" y1="45" x2="26" y2="45" stroke="white" stroke-width="2" stroke-linecap="round"/>
<line x1="36" y1="45" x2="50" y2="45" stroke="white" stroke-width="2" stroke-linecap="round"/>
<line x1="12" y1="53" x2="26" y2="53" stroke="white" stroke-width="2" stroke-linecap="round"/>
<line x1="36" y1="53" x2="50" y2="53" stroke="white" stroke-width="2" stroke-linecap="round"/>
</svg>
