<svg width="27" height="16" viewBox="0 0 27 16" fill="none" xmlns="http://www.w3.org/2000/svg">
<path d="M13.25 1C6.25 1 2.16667 6.7037 1 8.77778C2.75 11.8889 8 15 13.25 15C18.0542 15 22.875 11.8889 25.5 8.77778C24.3333 6.7037 20.25 1 13.25 1Z" stroke="#404040"/>
<path d="M18 8C18 9.83527 17.4415 11.4776 16.5623 12.6497C15.6833 13.8218 14.5071 14.5 13.25 14.5C11.9929 14.5 10.8167 13.8218 9.93769 12.6497C9.05855 11.4776 8.5 9.83527 8.5 8C8.5 6.16473 9.05855 4.52244 9.93769 3.35025C10.8167 2.17821 11.9929 1.5 13.25 1.5C14.5071 1.5 15.6833 2.17821 16.5623 3.35025C17.4415 4.52244 18 6.16473 18 8Z" stroke="#404040"/>
</svg>